<svg viewBox="0 0 1024 1024" xmlns="http://www.w3.org/2000/svg"><path d="M223 149q-32 10-46 40-14 31 1 62.5t48 40.5q27 7 53-5 27-13 37-44.5t-5-57.5q-12-21-35-32-13-6-29-6-16-1-24 2zm132 43q-7 2-12 5-12 8-11 23.5t17 56.5q2 4 22 58l7 19h-7q-7 0-9.5 1T348 336q-20-37-33-38-14-1-53 13-32 13-41 17t-14 11q-13 17-20 62.5t0 71.5q14 54 74 82 18 8 23.5 13t11.5 16q5 10 13.5 18t14.5 9l6 2-1 16q-5 42 11 84 6 16 24 40t29 30q7 4 10 1t5-7q2-5-10-18-29-31-41-62-8-24-6-60l1-24 9-3q8-2 71-24 61-21 80-26l18-5 12 8q43 27 98 62 86 54 94 58 10 5 12 9 2 3 22 60 25 70 42 99t33 27q6-1 8.5-6t1.5-325V226l-4-5q-5-7-16-12l-12-6-418-2-6-5q-7-5-21-5-14-1-21 1zm104 84q52 12 54 12 1 0 1 5t-.5 12.5Q513 313 511 321q-7 37-28 78.5T438 464q-13 14-15 14-1 0-18-32.5T388 411l13-2q45-4 45-29 0-14-30-91-5-12-7-18.5l-2-6.5q1 0 52 12zm112 26q36 14 43 43 7 31 32 44 11 5 42 14 73 20 91 41 11 13 11 39 0 17-3.5 28.5T772 547q-11 23-14 32-2 7-3 7-5 0-102-64-62-41-83-52-16-8-20.5-9.5T533 459q-16 0-49 12-29 9-30 7 23-26 37-48 18-28 31.5-66t13.5-61v-8l12 2q13 1 23 5z"/></svg>