<svg viewBox="0 0 1024 1024" xmlns="http://www.w3.org/2000/svg"><path d="M574 141q-27 10-40 35-5 9-6 28 0 19 5 32 11 24 35 35 10 4 26.5 4t26.5-5q22-11 33-33 5-11 5.5-27.5T656 181q-9-24-35-37-9-5-24-5.5t-23 2.5zm-78 101q-17 0-24 3.5T450 265q-11 12-73 74-58 59-64 68-6 10-7 28 0 17 3 26t14 19q11 10 32 21 17 10 53 30 35 21 49 28l17 9v83q1 61 1.5 72.5T480 740q10 17 33 17 13 0 19-3.5t12-14.5l5-10 1-106q0-106-2-114t-10-16q-14-13-81-47l-15-7 42-41q42-40 44-40t11 16q33 57 51 64 4 2 69 2 53 0 64.5-2t18.5-12q4-7 3-18 0-11-7-16-17-16-93-13l-32 2-22-36q-15-25-32-54t-29-38.5q-12-9.5-34-10.5zM242 525q-65 8-110 54-32 34-44 76-5 16-5 51 0 30 2.5 43.5T97 782q14 29 39 53 31 29 70 43 12 4 41 5.5t44-1.5q43-8 80.5-41t51.5-75q7-23 8-54t-5-56q-10-39-40.5-72T316 536q-40-14-74-11zm45 40q12 3 31 12 27 14 47 38.5t26 51.5q3 14 2.5 43t-5.5 44q-11 28-36 54-42 42-102 39-28-1-48.5-10T160 806q-22-22-31.5-45t-9.5-56q0-37 12-62 13-27 40-49t56-29q32-7 60 0zm458-37q-52 8-93 44.5T598 659q-5 17-5 49t5 49q9 36 36.5 67.5T697 872q19 9 31 11t40 2q35 0 51-6 26-8 51-27t41-41q18-26 26-54 4-12 4.5-40t-1.5-43q-9-56-52-96-22-21-48-34-49-23-95-16zm55 40q57 16 87 66 21 35 18 82-3 54-41 92-25 25-54 36-15 5-43 5t-39-4q-32-11-56.5-35T636 754q-5-13-5-48t4-47q13-34 40-58.5t62-33.5q30-8 63 1z"/></svg>