<svg viewBox="0 0 1024 1024" xmlns="http://www.w3.org/2000/svg"><path d="M430 231q-26 7-40.5 29.5T379 309q3 22 18.5 38t37.5 21q37 8 64-20.5t17-65.5q-7-29-32-43.5t-54-7.5zm-212 70q-22 6-31 27-9 19 0 39 10 21 30 27 6 2 59.5 7.5T335 407h6q-8 14-10 30-3 19-8.5 60.5T318 539q1 1 30-15.5t29-18.5q0-2-11.5-34T354 426q0-21 10-32 7-7 11-15t4-21q0-20-12-33-9-10-20-13t-57-8q-63-6-72-3zm186 89q-10 3-18 12-10 12-9 26 1 7 25 72 23 65 28 71 6 6 10.5 8t64.5 19q55 15 67.5 16t23.5-9q11-10 11-26 0-23-18-33-4-1-54-15l-50-14q0-1-20-56-15-40-18.5-48t-8.5-13q-15-16-34-10zm-187 22q-1 6-2 16l-1 13 39 46q38 42 40 42 1-3 8-52 6-49 8-53 1-5 .5-5t-43.5-5q-42-4-46-5-3 0-3 3zm-8 68q-1 13-5.5 58t-4.5 51q0 15 10 28t25 17q4 1 29 4l25 3q1-1-2-9-4-18 0-50l3-15-7-8q-1-1-6-7.5T261.5 534q-9.5-11-16.5-19-31-37-33-39-1-2-2 1 0 1-1 3zm141 70q-35 20-36 20-5 2-6 43v17l21 67q21 67 21 68 0 2-17 64-16 63-15 73 1 17 14 29 14 13 33.5 9.5T395 921q4-7 22.5-77.5T436 764q0-9-7-33-8-24-8-26-1-2 24 15l26 17 6 45q6 37 8.5 46.5T495 845q12 11 30 11 13 0 19-3 23-12 23-37 0-6-8-60t-9-58q-3-9-11.5-16T496 652l-44-29 1-7v-7l-8-3q-29-8-40-30-5-8-11-27-7-19-8-19t-36 20zm463-8q-4 2-52 66-48 63-49 65-1 1-20 69-19 66-19 67-1 1-32 5l-30 5-85 48q-86 48-89 51-10 9-8 21t13 18q9 5 21-.5t81-44.5l82-47 37-5q28-4 36.5-6.5T711 846q3-4 23-75 21-72 22-75t45-61q43-57 45-62 4-7 1.5-16T837 543q-4-3-12-3t-12 2z"/></svg>