<svg viewBox="0 0 1024 1024" xmlns="http://www.w3.org/2000/svg"><path d="M183 263q-19 6-29 24l-3 7v600l3 6q7 14 21 21l7 4h667l7-4q14-7 21-21l4-6V294l-4-8q-7-13-21-20l-7-4H518q-331 0-335 1zm486 58q10 5 9 26 0 13-5 17.5t-17 5.5q-18 0-23-7-3-3-3-19 0-12 1.5-16.5t7.5-6.5q5-3 15-2.5t15 2.5zm75 0q9 4 10 19 1 19-6 26-4 3-18.5 3t-18.5-3q-8-7-6-26 1-15 10-19 4-2 14-2t15 2zm75 0q6 2 8 6.5t2 16.5q0 16-3 19-6 7-24 7-12-1-16.5-5.5T780 347q0-21 10-26 5-2 14.5-2.5T819 321zm10 325v227H203V419h626v227zM541 502q-5 4-7 9t-41 125q-39 119-39 126 0 16 17 20.5t25-9.5q3-5 42-126.5T577 520q0-12-10-18-12-9-26 0zm-115 63q-7 2-63.5 28.5T303 622q-9 6-9 19.5t9 19.5q5 3 65 30.5t63 27.5q5 1 11-1 14-5 15-19.5T445 677q-4-3-40-19-33-16-34-17l34-16q33-15 39.5-19t9.5-9q5-11 1-21-4-8-12.5-11t-16.5 0zm165-1q-10 2-14 12-5 10 0 21 3 5 9.5 9t39.5 19l34 16q0 1-34 17-36 16-40 19-13 7-11.5 21.5T589 718q7 2 11 1 4 0 64-27.5t64-30.5q9-6 9-19t-8-19q-4-3-65-31t-65-28q-5-1-8 0z"/></svg>