<svg viewBox="0 0 1024 1024" xmlns="http://www.w3.org/2000/svg"><path d="M627 213q-81 26-83 26l-16 5 1 8q3 14 20 29 13 12 19 25 7 13 7 31t-5 29q-12 25-35 36-13 7-31 7-17 0-28-5-27-12-38-38t-2-54q4-13 2-21t-5-12q-2-3-5-2.5t-16 4.5q-24 6-77 24-56 18-64 20-7 1-7 3t28 92l28 91q-2 1-12 4-12 3-21-1-10-5-24-6-40-2-68 24-23 22-26.5 53t12.5 57q21 34 61 40 24 4 49.5-7.5T329 643q5-8 16.5-11.5T357 629l29 92q35 111 37 111 3 0 83.5-25t81.5-27q2-1-3-16-4-11-6-14.5t-10-9.5q-36-27-29-67 6-40 40-57 27-13 57-2 12 4 23.5 15t16.5 23q13 28 2 55l-5 11 5 16q5 16 7 16t85-26l84-26q1 0 1-3 0-2-30.5-100T791 485q-1-2-5.5-1t-10 4q-5.5 3-8.5 6-12 18-29 27-11 6-29 6.5t-29-3.5q-23-8-36.5-31.5T634 445q5-33 33.5-50t60.5-7q14 5 23 2l8-3-29-97q-29-97-33-97.5T627 213z"/></svg>