<svg viewBox="0 0 1024 1024" xmlns="http://www.w3.org/2000/svg"><path d="M795 131q-23 7-37 24.5T742 196q-1 24 13 45t36 28q10 4 27 3t27-6q23-11 35-36 5-11 5-29t-6-31q-12-24-35-35-26-12-49-4zm-435 47q-10 14-11 14l-16-7q-16-7-18.5-6.5T324 193q12 14 12 17 0 4-10 17-10 14-10 16t8.5 5.5Q333 252 339 252q7 0 20-7t15-3q7 7 109 81t105 73q9-2 45-17 2-1 2 30 0 28 2.5 36.5T651 465q10 9 41 24 92 45 117 45 19 0 19-15 0-12-18.5-29T742 441q-24-17-29-21t-4-8q1-3 9-31 8-25 14-63 7-37 3-48-5-17-21-30.5T678 221q-15-4-39-2-89 4-144 47-8 6-15 11-2 1-47-32l-44-33v-15q0-16-5-23-7-10-10.5-9.5T360 178zm57 181q-7 15-10 33t0 32q6 27 21.5 46t49.5 41q62 41 69 51 6 8 6 18 0 9-6 18.5T521 632q-20 24-27 33l-10 13-14-7q-15-9-56-33-50-29-75-44-12-6-74-42-88-52-103.5-52t-24 12.5Q129 525 133 540q2 10 15 19t78 46q58 33 83 48 3 1 34.5 19t43.5 25q37 21 64 37 32 20 84 49 54 29 80 45 90 55 135 77 13 7 35 12t37 5q29 0 58-15.5t37-35.5q7-17-1.5-31T889 826q-9 0-14 2.5T861 840q-17 16-41 16-20 0-40.5-9.5T681 791q-78-46-104-60-11-5-11-6 0-3 41-49 48-54 61-85.5t-1-59.5q-5-11-21.5-28.5T611 472q-50-37-138-99-42-29-47-29-1 0-9 15z"/></svg>