<svg viewBox="0 0 1024 1024" xmlns="http://www.w3.org/2000/svg"><path d="M758 233q-35 12-48.5 45.5T713 345q15 28 47 37 19 6 39 1t36-20.5q16-15.5 21-36.5 8-30-8.5-58T800 232q-21-6-42 1zM602 335q-76 10-192 83-52 33-63 44-11 10-6 24t20 15q6 1 10-1t22-14q38-27 79-51 50-28 52-26l-3.5 3.5Q517 416 511 420q-35 28-62 63-75 94-98 240-5 32 3 47.5t25 23.5q7 4 20 4t23-5q16-8 24-24 2-6 7-32 16-95 52-156t102-105q11-6 30.5-17.5T659 447q3 0-11 17-21 25-60 48-14 8-16 14-6 11 0 21 7 14 22 13 8-1 28.5-14t39.5-30q26-22 40-49t12-50q-2-19-12.5-38T677 351q-16-11-35-15-19-3-40-1zm153 261q-4 4-6 21-4 25-15 33-4 4-82 42-7 3-256 126-43 21-89.5 44t-78 38.5Q197 916 196 917q-22 11-24 16-3 7 .5 12.5T184 951q5 0 284-137 200-99 240.5-119.5T755 668q16-15 20-38 3-17 2-27 0-7-8-9.5t-14 2.5zm73 26q-9 2-12.5 24.5T802 676q-9 7-474 235-46 23-49 26-5 9 0 17 6 8 15 5 3-1 225-110 54-27 111.5-55.5T733 743l45-22q33-17 42.5-24t16.5-20q4-11 6.5-27t-.5-22q-1-1-6-4t-6-2h-3z"/></svg>